<?xml version="1.0" encoding="UTF-8"?>
<svg width="700pt" height="700pt" version="1.1" viewBox="0 0 700 700" xmlns="http://www.w3.org/2000/svg" xmlns:xlink="http://www.w3.org/1999/xlink">
 <defs>
  <symbol id="t" overflow="visible">
   <path d="m18.766-1.125c-0.96875 0.5-1.9805 0.875-3.0312 1.125-1.043 0.25781-2.1367 0.39062-3.2812 0.39062-3.3984 0-6.0898-0.94531-8.0781-2.8438-1.9922-1.9062-2.9844-4.4844-2.9844-7.7344 0-3.2578 0.99219-5.8359 2.9844-7.7344 1.9883-1.9062 4.6797-2.8594 8.0781-2.8594 1.1445 0 2.2383 0.13281 3.2812 0.39062 1.0508 0.25 2.0625 0.625 3.0312 1.125v4.2188c-0.98047-0.65625-1.9453-1.1406-2.8906-1.4531-0.94922-0.3125-1.9492-0.46875-3-0.46875-1.875 0-3.3516 0.60547-4.4219 1.8125-1.0742 1.1992-1.6094 2.8555-1.6094 4.9688 0 2.1055 0.53516 3.7617 1.6094 4.9688 1.0703 1.1992 2.5469 1.7969 4.4219 1.7969 1.0508 0 2.0508-0.14844 3-0.45312 0.94531-0.3125 1.9102-0.80078 2.8906-1.4688z"/>
  </symbol>
  <symbol id="b" overflow="visible">
   <path d="m13.734-11.141c-0.4375-0.19531-0.87109-0.34375-1.2969-0.4375-0.41797-0.10156-0.83984-0.15625-1.2656-0.15625-1.2617 0-2.2305 0.40625-2.9062 1.2188-0.67969 0.80469-1.0156 1.9531-1.0156 3.4531v7.0625h-4.8906v-15.312h4.8906v2.5156c0.625-1 1.3438-1.7266 2.1562-2.1875 0.82031-0.46875 1.8008-0.70312 2.9375-0.70312 0.16406 0 0.34375 0.011719 0.53125 0.03125 0.19531 0.011719 0.47656 0.039062 0.84375 0.078125z"/>
  </symbol>
  <symbol id="a" overflow="visible">
   <path d="m17.641-7.7031v1.4062h-11.453c0.125 1.1484 0.53906 2.0078 1.25 2.5781 0.70703 0.57422 1.7031 0.85938 2.9844 0.85938 1.0312 0 2.082-0.14844 3.1562-0.45312 1.082-0.3125 2.1914-0.77344 3.3281-1.3906v3.7656c-1.1562 0.4375-2.3125 0.76562-3.4688 0.98438-1.1562 0.22656-2.3125 0.34375-3.4688 0.34375-2.7734 0-4.9297-0.70312-6.4688-2.1094-1.5312-1.4062-2.2969-3.3789-2.2969-5.9219 0-2.5 0.75391-4.4609 2.2656-5.8906 1.5078-1.4375 3.582-2.1562 6.2188-2.1562 2.4062 0 4.332 0.73047 5.7812 2.1875 1.4453 1.4492 2.1719 3.3828 2.1719 5.7969zm-5.0312-1.625c0-0.92578-0.27344-1.6719-0.8125-2.2344-0.54297-0.57031-1.25-0.85938-2.125-0.85938-0.94922 0-1.7188 0.26562-2.3125 0.79688s-0.96484 1.2969-1.1094 2.2969z"/>
  </symbol>
  <symbol id="m" overflow="visible">
   <path d="m9.2188-6.8906c-1.0234 0-1.793 0.17188-2.3125 0.51562-0.51172 0.34375-0.76562 0.85547-0.76562 1.5312 0 0.625 0.20703 1.1172 0.625 1.4688 0.41406 0.34375 0.98828 0.51562 1.7188 0.51562 0.92578 0 1.7031-0.32812 2.3281-0.98438 0.63281-0.66406 0.95312-1.4922 0.95312-2.4844v-0.5625zm7.4688-1.8438v8.7344h-4.9219v-2.2656c-0.65625 0.92969-1.3984 1.6055-2.2188 2.0312-0.82422 0.41406-1.8242 0.625-3 0.625-1.5859 0-2.8711-0.45703-3.8594-1.375-0.99219-0.92578-1.4844-2.1289-1.4844-3.6094 0-1.7891 0.61328-3.1016 1.8438-3.9375 1.2383-0.84375 3.1797-1.2656 5.8281-1.2656h2.8906v-0.39062c0-0.76953-0.30859-1.332-0.92188-1.6875-0.61719-0.36328-1.5703-0.54688-2.8594-0.54688-1.0547 0-2.0312 0.10547-2.9375 0.3125-0.89844 0.21094-1.7305 0.52344-2.5 0.9375v-3.7344c1.0391-0.25 2.0859-0.44141 3.1406-0.57812 1.0625-0.13281 2.125-0.20312 3.1875-0.20312 2.7578 0 4.75 0.54688 5.9688 1.6406 1.2266 1.0859 1.8438 2.8555 1.8438 5.3125z"/>
  </symbol>
  <symbol id="d" overflow="visible">
   <path d="m7.7031-19.656v4.3438h5.0469v3.5h-5.0469v6.5c0 0.71094 0.14062 1.1875 0.42188 1.4375s0.83594 0.375 1.6719 0.375h2.5156v3.5h-4.1875c-1.9375 0-3.3125-0.39844-4.125-1.2031-0.80469-0.8125-1.2031-2.1797-1.2031-4.1094v-6.5h-2.4219v-3.5h2.4219v-4.3438z"/>
  </symbol>
  <symbol id="f" overflow="visible">
   <path d="m12.766-13.078v-8.2031h4.9219v21.281h-4.9219v-2.2188c-0.66797 0.90625-1.4062 1.5703-2.2188 1.9844s-1.7578 0.625-2.8281 0.625c-1.8867 0-3.4336-0.75-4.6406-2.25-1.2109-1.5-1.8125-3.4258-1.8125-5.7812 0-2.3633 0.60156-4.2969 1.8125-5.7969 1.207-1.5 2.7539-2.25 4.6406-2.25 1.0625 0 2 0.21484 2.8125 0.64062 0.82031 0.42969 1.5664 1.0859 2.2344 1.9688zm-3.2188 9.9219c1.0391 0 1.8359-0.37891 2.3906-1.1406 0.55078-0.76953 0.82812-1.8828 0.82812-3.3438 0-1.457-0.27734-2.5664-0.82812-3.3281-0.55469-0.76953-1.3516-1.1562-2.3906-1.1562-1.043 0-1.8398 0.38672-2.3906 1.1562-0.55469 0.76172-0.82812 1.8711-0.82812 3.3281 0 1.4609 0.27344 2.5742 0.82812 3.3438 0.55078 0.76172 1.3477 1.1406 2.3906 1.1406z"/>
  </symbol>
  <symbol id="l" overflow="visible">
   <path d="m10.5-3.1562c1.0508 0 1.8516-0.37891 2.4062-1.1406 0.55078-0.76953 0.82812-1.8828 0.82812-3.3438 0-1.457-0.27734-2.5664-0.82812-3.3281-0.55469-0.76953-1.3555-1.1562-2.4062-1.1562-1.0547 0-1.8594 0.38672-2.4219 1.1562-0.55469 0.77344-0.82812 1.8828-0.82812 3.3281 0 1.4492 0.27344 2.5586 0.82812 3.3281 0.5625 0.77344 1.3672 1.1562 2.4219 1.1562zm-3.25-9.9219c0.67578-0.88281 1.4219-1.5391 2.2344-1.9688 0.82031-0.42578 1.7656-0.64062 2.8281-0.64062 1.8945 0 3.4453 0.75 4.6562 2.25 1.207 1.5 1.8125 3.4336 1.8125 5.7969 0 2.3555-0.60547 4.2812-1.8125 5.7812-1.2109 1.5-2.7617 2.25-4.6562 2.25-1.0625 0-2.0078-0.21094-2.8281-0.625-0.8125-0.42578-1.5586-1.0859-2.2344-1.9844v2.2188h-4.8906v-21.281h4.8906z"/>
  </symbol>
  <symbol id="k" overflow="visible">
   <path d="m0.34375-15.312h4.8906l4.125 10.391 3.5-10.391h4.8906l-6.4375 16.766c-0.64844 1.6953-1.4023 2.8828-2.2656 3.5625-0.86719 0.6875-2 1.0312-3.4062 1.0312h-2.8438v-3.2188h1.5312c0.83203 0 1.4375-0.13672 1.8125-0.40625 0.38281-0.26172 0.67969-0.73047 0.89062-1.4062l0.14062-0.42188z"/>
  </symbol>
  <symbol id="j" overflow="visible">
   <path d="m2.5781-20.406h5.25v20.406h-5.25z"/>
  </symbol>
  <symbol id="e" overflow="visible">
   <path d="m14.719-14.828v3.9844c-0.65625-0.45703-1.3242-0.79688-2-1.0156-0.66797-0.21875-1.3594-0.32812-2.0781-0.32812-1.3672 0-2.4336 0.40234-3.2031 1.2031-0.76172 0.79297-1.1406 1.9062-1.1406 3.3438 0 1.4297 0.37891 2.543 1.1406 3.3438 0.76953 0.79297 1.8359 1.1875 3.2031 1.1875 0.75781 0 1.4844-0.10938 2.1719-0.32812 0.6875-0.22656 1.3203-0.56641 1.9062-1.0156v4c-0.76172 0.28125-1.5391 0.48828-2.3281 0.625-0.78125 0.14453-1.5742 0.21875-2.375 0.21875-2.7617 0-4.9219-0.70703-6.4844-2.125-1.5547-1.4141-2.3281-3.3828-2.3281-5.9062 0-2.5312 0.77344-4.5039 2.3281-5.9219 1.5625-1.4141 3.7227-2.125 6.4844-2.125 0.80078 0 1.5938 0.074219 2.375 0.21875 0.78125 0.13672 1.5547 0.35156 2.3281 0.64062z"/>
  </symbol>
  <symbol id="c" overflow="visible">
   <path d="m9.6406-12.188c-1.0859 0-1.9141 0.39062-2.4844 1.1719-0.57422 0.78125-0.85938 1.9062-0.85938 3.375s0.28516 2.5938 0.85938 3.375c0.57031 0.77344 1.3984 1.1562 2.4844 1.1562 1.0625 0 1.875-0.38281 2.4375-1.1562 0.57031-0.78125 0.85938-1.9062 0.85938-3.375s-0.28906-2.5938-0.85938-3.375c-0.5625-0.78125-1.375-1.1719-2.4375-1.1719zm0-3.5c2.6328 0 4.6914 0.71484 6.1719 2.1406 1.4766 1.418 2.2188 3.3867 2.2188 5.9062 0 2.5117-0.74219 4.4805-2.2188 5.9062-1.4805 1.418-3.5391 2.125-6.1719 2.125-2.6484 0-4.7148-0.70703-6.2031-2.125-1.4922-1.4258-2.2344-3.3945-2.2344-5.9062 0-2.5195 0.74219-4.4883 2.2344-5.9062 1.4883-1.4258 3.5547-2.1406 6.2031-2.1406z"/>
  </symbol>
  <symbol id="i" overflow="visible">
   <path d="m17.75-9.3281v9.3281h-4.9219v-7.1406c0-1.3203-0.03125-2.2344-0.09375-2.7344s-0.16797-0.86719-0.3125-1.1094c-0.1875-0.3125-0.44922-0.55469-0.78125-0.73438-0.32422-0.17578-0.69531-0.26562-1.1094-0.26562-1.0234 0-1.8242 0.39844-2.4062 1.1875-0.58594 0.78125-0.875 1.8711-0.875 3.2656v7.5312h-4.8906v-15.312h4.8906v2.2344c0.73828-0.88281 1.5195-1.5391 2.3438-1.9688 0.83203-0.42578 1.75-0.64062 2.75-0.64062 1.7695 0 3.1133 0.54688 4.0312 1.6406 0.91406 1.0859 1.375 2.6562 1.375 4.7188z"/>
  </symbol>
  <symbol id="s" overflow="visible">
   <path d="m14.312-14.828v3.7188c-1.043-0.4375-2.0547-0.76562-3.0312-0.98438-0.98047-0.21875-1.9023-0.32812-2.7656-0.32812-0.92969 0-1.6211 0.11719-2.0781 0.34375-0.44922 0.23047-0.67188 0.58984-0.67188 1.0781 0 0.38672 0.17188 0.68359 0.51562 0.89062 0.34375 0.21094 0.95703 0.36719 1.8438 0.46875l0.85938 0.125c2.5078 0.32422 4.1953 0.85156 5.0625 1.5781 0.86328 0.73047 1.2969 1.8711 1.2969 3.4219 0 1.6367-0.60547 2.8672-1.8125 3.6875-1.1992 0.8125-2.9922 1.2188-5.375 1.2188-1.0234 0-2.0742-0.078125-3.1562-0.23438-1.0742-0.15625-2.1797-0.39453-3.3125-0.71875v-3.7188c0.96875 0.48047 1.9609 0.83984 2.9844 1.0781 1.0312 0.23047 2.0781 0.34375 3.1406 0.34375 0.95703 0 1.6758-0.12891 2.1562-0.39062 0.47656-0.26953 0.71875-0.66406 0.71875-1.1875 0-0.4375-0.16797-0.75781-0.5-0.96875-0.33594-0.21875-0.99609-0.38281-1.9844-0.5l-0.85938-0.10938c-2.1797-0.26953-3.7031-0.77344-4.5781-1.5156-0.875-0.73828-1.3125-1.8594-1.3125-3.3594 0-1.625 0.55078-2.8281 1.6562-3.6094 1.1133-0.78906 2.8203-1.1875 5.125-1.1875 0.89453 0 1.8359 0.074219 2.8281 0.21875 1 0.13672 2.082 0.35156 3.25 0.64062z"/>
  </symbol>
  <symbol id="h" overflow="visible">
   <path d="m2.5781-20.406h8.7344c2.5938 0 4.582 0.57812 5.9688 1.7344 1.3945 1.1484 2.0938 2.7891 2.0938 4.9219 0 2.1367-0.69922 3.7812-2.0938 4.9375-1.3867 1.1562-3.375 1.7344-5.9688 1.7344h-3.4844v7.0781h-5.25zm5.25 3.8125v5.7031h2.9219c1.0195 0 1.8047-0.25 2.3594-0.75 0.5625-0.5 0.84375-1.2031 0.84375-2.1094 0-0.91406-0.28125-1.6172-0.84375-2.1094-0.55469-0.48828-1.3398-0.73438-2.3594-0.73438z"/>
  </symbol>
  <symbol id="g" overflow="visible">
   <path d="m2.1875-5.9688v-9.3438h4.9219v1.5312c0 0.83594-0.007813 1.875-0.015625 3.125-0.011719 1.25-0.015625 2.0859-0.015625 2.5 0 1.2422 0.03125 2.1328 0.09375 2.6719 0.070313 0.54297 0.17969 0.93359 0.32812 1.1719 0.20703 0.32422 0.47266 0.57422 0.79688 0.75 0.32031 0.16797 0.69141 0.25 1.1094 0.25 1.0195 0 1.8203-0.39062 2.4062-1.1719 0.58203-0.78125 0.875-1.8672 0.875-3.2656v-7.5625h4.8906v15.312h-4.8906v-2.2188c-0.74219 0.89844-1.5234 1.5586-2.3438 1.9844-0.82422 0.41406-1.7344 0.625-2.7344 0.625-1.7617 0-3.1055-0.53906-4.0312-1.625-0.92969-1.082-1.3906-2.6602-1.3906-4.7344z"/>
  </symbol>
  <symbol id="r" overflow="visible">
   <path d="m12.422-21.281v3.2188h-2.7031c-0.6875 0-1.1719 0.125-1.4531 0.375-0.27344 0.25-0.40625 0.6875-0.40625 1.3125v1.0625h4.1875v3.5h-4.1875v11.812h-4.8906v-11.812h-2.4375v-3.5h2.4375v-1.0625c0-1.6641 0.46094-2.8984 1.3906-3.7031 0.92578-0.80078 2.3672-1.2031 4.3281-1.2031z"/>
  </symbol>
  <symbol id="q" overflow="visible">
   <path d="m16.547-12.766c0.61328-0.94531 1.3477-1.6719 2.2031-2.1719 0.85156-0.5 1.7891-0.75 2.8125-0.75 1.7578 0 3.0977 0.54688 4.0156 1.6406 0.92578 1.0859 1.3906 2.6562 1.3906 4.7188v9.3281h-4.9219v-7.9844-0.35938c0.007813-0.13281 0.015625-0.32031 0.015625-0.5625 0-1.082-0.16406-1.8633-0.48438-2.3438-0.3125-0.48828-0.82422-0.73438-1.5312-0.73438-0.92969 0-1.6484 0.38672-2.1562 1.1562-0.51172 0.76172-0.77344 1.8672-0.78125 3.3125v7.5156h-4.9219v-7.9844c0-1.6953-0.14844-2.7852-0.4375-3.2656-0.29297-0.48828-0.8125-0.73438-1.5625-0.73438-0.9375 0-1.6641 0.38672-2.1719 1.1562-0.51172 0.76172-0.76562 1.8594-0.76562 3.2969v7.5312h-4.9219v-15.312h4.9219v2.2344c0.60156-0.86328 1.2891-1.5156 2.0625-1.9531 0.78125-0.4375 1.6406-0.65625 2.5781-0.65625 1.0625 0 2 0.25781 2.8125 0.76562 0.8125 0.51172 1.4258 1.2305 1.8438 2.1562z"/>
  </symbol>
  <symbol id="p" overflow="visible">
   <path d="m17.75-9.3281v9.3281h-4.9219v-7.1094c0-1.3438-0.03125-2.2656-0.09375-2.7656s-0.16797-0.86719-0.3125-1.1094c-0.1875-0.3125-0.44922-0.55469-0.78125-0.73438-0.32422-0.17578-0.69531-0.26562-1.1094-0.26562-1.0234 0-1.8242 0.39844-2.4062 1.1875-0.58594 0.78125-0.875 1.8711-0.875 3.2656v7.5312h-4.8906v-21.281h4.8906v8.2031c0.73828-0.88281 1.5195-1.5391 2.3438-1.9688 0.83203-0.42578 1.75-0.64062 2.75-0.64062 1.7695 0 3.1133 0.54688 4.0312 1.6406 0.91406 1.0859 1.375 2.6562 1.375 4.7188z"/>
  </symbol>
  <symbol id="o" overflow="visible">
   <path d="m2.5781-20.406h5.875l7.4219 14v-14h4.9844v20.406h-5.875l-7.4219-14v14h-4.9844z"/>
  </symbol>
  <symbol id="n" overflow="visible">
   <path d="m2.3594-15.312h4.8906v15.031c0 2.0508-0.49609 3.6172-1.4844 4.7031-0.98047 1.082-2.4062 1.625-4.2812 1.625h-2.4219v-3.2188h0.85938c0.92578 0 1.5625-0.21094 1.9062-0.625 0.35156-0.41797 0.53125-1.2461 0.53125-2.4844zm0-5.9688h4.8906v4h-4.8906z"/>
  </symbol>
 </defs>
 <g>
  <path d="m601.33 323.12c3.8281-12.387 2.4961-25.793-3.6953-37.184 0-5.6016 0-23.688-7.9531-34.609-1.5117-9.9688-6.8867-24.586-18.535-26.938-2.1836-9.6367-9.1641-17.48-18.48-20.773-1.7344-5.9375-7.5586-15.176-27.105-17.641-12.992-1.625-21.895-2.9688-28.281-3.9766-5.6016-0.83984-9.1289-1.3984-12.098-1.625-1.625 0-2.9688-0.33594-4.0898-0.55859h0.007812c-3.75-0.8125-7.6602-0.46094-11.203 1.0078-1.832 0.55078-3.7031 0.96094-5.5977 1.2305-6.9453 1.2305-15.625 2.8008-20.047 8.6797h-0.003906c-1.1172 1.4922-2.0938 3.0859-2.9102 4.7617-2.7305-1.5898-5.8047-2.4922-8.9609-2.6328-4.5117 0-8.7227 2.2734-11.199 6.0469-1.6797 2.2969-2.7422 3.9766-3.5859 5.1523h0.003906c-0.89844 1.7695-2.4141 3.1445-4.2578 3.8672-5.207 2.9102-9.0156 4.8164-9.0156 4.8164l-12.602 4.8711c-3.1914-2.8008-9.0703-7.8398-15.793-13.609h0.003907c-3.7305-3.2227-6.6328-7.293-8.457-11.871-1.2656-3.5938-3.5859-6.7188-6.6641-8.9609-3.6406-2.2383-9.8555-2.5742-22.398-2.8008h-0.003906c-3.7383 0.039062-7.4766-0.12891-11.199-0.50391-15.16-9.4727-32.535-14.82-50.398-15.512-7.5312 0.058594-14.988 1.4805-22.008 4.1992h-4.1445c-8.6797 0-24.078 1.7344-34.105 12.77h-0.28125 0.003907c-6.5391 0.019531-12.898 2.1133-18.172 5.9766-5.2734 3.8672-9.1836 9.3008-11.172 15.527-13.551 2.1836-33.602 11.199-33.039 33.602l-7.2812 12.375c-4.1445 3.3047-18.93 16.07-21.055 29.289-1.625 10.137-3.1914 19.488-3.7539 22.398v1.1758c-1.9023 7.2227-5.6016 24.754 1.457 31.863 2.1328 2.043 3.7969 4.5273 4.8711 7.2812-0.33594 5.0977-0.72656 20.719 6.1055 28l2.1289 2.3516c6.2148 7 15.457 17.527 31.359 18.199 5.0391 3.1367 23.352 14.391 28 17.473 1.3984 0.89453 3.2461 2.2383 5.3203 3.6953h-0.003907c5.918 5.2383 12.754 9.3398 20.16 12.098l27.609 8.5664 5.1523 1.8477 0.95312 0.33594h28.445c10.125-0.74219 19.934-3.8711 28.617-9.125 1.207-0.48828 2.5117-0.67969 3.8086-0.5625h3.3047c7.2852 0.51563 14.332-2.7109 18.703-8.5664 2.8906 0.74219 5.8633 1.1172 8.8477 1.1172 9.0156 0 21.785-3.4727 32.312-19.656v0.003906c2.4141-0.49219 4.8711-0.75391 7.3359-0.78516 2.3477-0.11328 4.6875 0.32812 6.832 1.2891 4.3867 2.7031 9.3633 4.3164 14.504 4.7031 1 0.003907 1.9961-0.10938 2.9688-0.33594 12.543 7.5586 42.895 25.594 48.887 27.105v-0.003906c2.0742 0.46094 4.1992 0.66797 6.3281 0.61719 3.0234 0 6.4961 0 9.8008-0.50391h7.6719c3.0781 1.4492 6.4492 2.1758 9.8555 2.1289 6.6406-0.066406 13.062-2.3984 18.199-6.6094 2.1523 0.28906 4.3242 0.4375 6.4961 0.44922 5.1172 0.27344 10.195-1.0156 14.559-3.6953h6.2734c10.359 0 24.473-1.0078 33.207-5.6016 7.2812-4.0312 16.801-11.199 18.367-17.641l0.61719-0.67188c4.5352-4.8711 17.641-19.152 11.199-33.992 6.7617-12.52 6.4844-27.66-0.72656-39.926zm-122.08-132.22c1.3984 0 2.9688 0.50391 4.9844 0.67188s6.1055 0.72656 11.199 1.5664l3.8633 0.55859 0.003906 0.003906c-2.4414 0.52344-4.7031 1.6836-6.5547 3.3594-3.6797 3.7305-5.5234 8.8945-5.0391 14.113-0.51562 0.34375-1.0586 0.64453-1.625 0.89453-0.92578-0.13672-1.8711-0.13672-2.7969 0l-7.5039-21.672h0.67188c0.94531 0.09375 1.8789 0.26172 2.7969 0.50391zm45.414 220.02 0.55859 1.2891h0.003906c-0.83984 0.39062-1.7227 0.67188-2.6289 0.83984zm-13.773-2.125-12.656-4.4258 4.1992-21.895v-2.6875h0.003906c0.51953 6.0234 3.8086 11.465 8.9023 14.727 2.7383 2.0273 5.7305 3.6875 8.9023 4.9297zm-149.41-29.176 7.2227-17.191 16.352 8.2891v-0.003906c0.19922 4.1602-0.29297 8.3242-1.4531 12.32l1.1211 1.8477h-0.003906c-3.2617 0.12891-6.5039 0.5625-9.6875 1.2891zm-49.727 33.602v-0.003906c-0.93359 0.12891-1.8516 0.33594-2.7461 0.61719l-16.238-8.793 6.1602-19.152 26.824-7.6172 1.5117 12.207-4.4258 3.9219zm-84.953-0.73047-4.4805-11.535c4.4805-11.816 9.2969-24.137 12.039-30.688l22.398 12.543-2.2383 27.719-6.2148 8.8477c-6.8906-2.4609-15.906-5.4883-21.504-6.8867zm-63.055-95.199 13.496-12.711 33.602 6.2734-20.664 23.07-23.633-3.0234zm-7.3359-63.84 4.3672-7.5039 21.281 16.238-6.7188 22.734c-8.9609-15.23-17.191-29.512-18.145-31.754zm106.4-37.688 12.992 19.879-23.465 11.871-12.992-21zm105.89-2.9688 2.1289 1.8477-7.3359 13.609-17.191 13.383c-3.0781-8.2891-5.6016-14.727-5.6016-14.895-0.95312-2.2969-1.7344-4.7617-2.5195-7.2227l27.441-9.7422v-0.003906c0.97266 1.0586 2 2.0703 3.0781 3.0234zm25.09 29.457-6.3281 5.0977-12.879-16.016 4.9844-9.2383 6.3281 5.6016-0.003907-0.007813c1.9375 5.1289 4.5977 9.957 7.8984 14.336zm31.977 5.9375 2.6289-0.003906-5.5977 13.887c-0.99609-3.1016-2.2539-6.1172-3.7539-9.0156l1.8477 1.3984zm24.695-3.9219 7.3906 18.258-2.9688 18.426-25.145 4.5352c-0.55859-2.0156-1.2305-4.0898-1.8477-6.2148l12.824-32.145zm17.527-5.207 0.44922 1.3984c0.73438 1.9062 1.2031 3.9023 1.3984 5.9336-0.054688 3.3672-0.91797 6.6719-2.5195 9.6328l-6.1602-15.23zm22.902 134.4v2.5195l-18.426-2.2969-18.648-12.992 12.77-21.672 8.1211 6.7188c3.4375 10.176 8.9258 19.535 16.129 27.496zm-15.23 11.93 14.336 1.5664-3.6953 19.434-5.6016 10.809-7-8.793zm-30.465-32.09-18.816-25.258c1.7344-3.5859 3.3594-7.3906 4.7031-11.199l25.984 13.832 0.83984 0.72656zm-57.961-43.738-3.1914-24.527 34.105 0.44922c1.9453 5.9258 3.3516 12.02 4.1992 18.199l-14.391 6.2148zm-24.75 38.754-15.289-3.6406-1.9023-24.641 28.895 0.50391zm-35.84 17.863-28.559 8.1211-4.0898-23.242 16.801-11.199 23.352 11.648zm-50.398 53.535-10.25-9.5195 2.0156-24.641 19.098 1.0625zm-41.273-73.695c-1.1758-6.5508-2.9102-15.344-5.2656-27.16l17.137 10.586zm50.961-102.76 12.098 3.4727-6.7188 32.984-27.328 8.625-12.77-11.648 4.0312-17.922zm44.238-12.488c1.5664 3.8633 3.2461 8.1211 4.8164 12.434l-16.801-3.2461 10.809-12.711c0.33594 1.1758 0.78516 2.3516 1.2305 3.5273zm36.625 8.7383 13.328 16.801-5.6016 17.246-18.258-2.1289c-1.2891-4.8711-3.5859-11.762-6.0469-18.762zm-50.398 75.152 17.246 4.2578 1.625 20.777-19.488-9.8594zm19.148-6.6641-21.84-5.6016-8.5117-14.055 38.473-5.2656c-2.0703 6.7773-5.375 16.523-8.1211 24.922zm-47.488 33.602-26.711-16.801 6.0469-26.207 26.266-8.3438 12.098 20.273-1.2305 19.879zm21.672-92.008 29.793 5.6016c2.2969 6.4414 4.1992 12.207 5.6016 16.184l-41.664 5.6016 5.6016-26.32zm-66.133 35.277 12.824 11.93-5.1523 22.398-26.266-16.238 0.95313-12.602zm12.824 50.398 26.375 16.578 4.1445 23.352-22.734-1.2305-25.426-14.223zm90.551-26.375c3.4727-10.246 6.8867-20.551 8.8477-26.543l16.801 1.9609 3.2461 24.977zm116.65 12.938-30.016-16.129c-0.054687-3.2188-0.42969-6.4297-1.1211-9.5742l25.367-4.5938 9.2383 9.5742 0.003906 0.003906c-0.10547 3.2539 0.0625 6.5156 0.50391 9.7422l-3.5859 10.414zm-50.961-54.152c0.50391 1.8477 1.1758 4.0898 1.9609 6.4961l-28.391-0.33594 5.0977-15.566 11.199-8.9023-0.003906-0.003906c4.9961 5.1055 8.5 11.477 10.137 18.426zm-87.473-53.367-19.543 22.961-18.871-5.6016-15.176-22.625 23.238-31.023c9.2422 2.4688 18.086 6.2383 26.266 11.199 0.82031 8.4414 2.1836 16.824 4.0859 25.09zm-96.152 16.52 15.457 25.145-4.1445 18.422-17.414 5.1523-27.105-20.832 14.168-21.895zm-14.055 56.559-1.0078 12.77-29.625-5.6016 7.2812-25.09zm-52.586 84 0.50391 6.2734c-2.3828-0.48437-4.6875-1.3125-6.832-2.4648zm9.4648-14.617-2.8555-14.223 19.488 2.4648 4.5352 11.762zm26.938-15.566 19.656-22.008c2.6328 13.609 5.6016 29.23 7.0547 37.465h-20.551zm24.137 26.879c-1.6797 4.0312-3.8633 9.6328-6.8867 17.527l-2.8555-7.168-3.9766-10.305zm37.801 52.809 1.625 1.5117h-2.5234zm28.391-5.2656 7.1133 3.8633-0.003907 0.003906c-2.9766 1.0273-6.0273 1.832-9.125 2.4062zm48.328-33.098v-2.1836l2.1836 1.0625zm0.55859-14.168 6.7773-12.879 13.215 3.1367-6.5508 15.625-0.55859 0.33594zm55.441-5.8789-20.496-10.414 13.16-31.359 23.91 0.39062 8.7344-3.7539 0.003906 0.003906c-2.6836 6.4336-5.8281 12.668-9.4102 18.648-1.6875 2.8633-2.8242 6.0156-3.3594 9.2969-1.1211 5.6016-2.3516 11.199-6.3828 13.887-1.9375 1.2422-3.957 2.3477-6.0508 3.3047zm23.742-14.949c0.28125-1.9062 0.75-3.7852 1.4023-5.5977 0.50391-0.78516 1.1758-1.8477 1.9023-3.0781l18.48 25.141 0.95312 1.2305-4.8164 11.199-9.5195-5.9922-12.039-10.359h-0.003906c1.7344-4.0117 2.957-8.2266 3.6406-12.543zm4.6484 37.801 4.0898 12.602-8.7383-5.3203zm13.047 3.8086 5.2656 3.3047 9.4062-21.223 15.121 10.527-1.793 26.152-6.4961 7.2773c-3.9766-2.0703-9.4648-5.1523-15.734-8.7344zm45.586-53.145-8.1211-6.6641 1.2305-2.0703h0.003906c1.5547 2.2461 3.4453 4.2461 5.5977 5.9336l1.1758 0.89453v0.003906c0.078124 0.62891 0.11719 1.2656 0.11328 1.9023zm-15.625-142.69 8.6797 24.137c-2.75 2.5078-4.793 5.6953-5.9336 9.2383v0.67188l-9.6875 2.9102-5.6016-28.336-1.457 0.28125c0.625-1.6992 1.4961-3.3047 2.5781-4.7578 3.3906-2.3359 7.3242-3.7617 11.422-4.1445zm-34.664 12.207c1.0625-1.457 1.7344-1.457 2.0156-1.457 1.7578 0.31641 3.4336 0.98438 4.9297 1.9609 0.95312 0.50391 1.8477 1.0078 2.5742 1.2891 0.63281 0.26953 1.2891 0.47656 1.9609 0.61719l5.0977 25.48-11.199 3.3047h-5.6016l-3.7539-25.93 0.44922-0.61719c1.0625-1.0625 1.7344-2.5195 3.5273-4.6484zm-21.336 17.473s3.0781-1.5117 7.5039-3.9766l2.7422 19.152-5.6016 6.9453h0.003906c-2.4219-3.0977-5.4258-5.6836-8.8477-7.6172-3.1367-2.7695-5.543-6.2695-7-10.191zm-53.984-30.238c1.0469 1.2227 1.8633 2.625 2.4102 4.1406 0.44922 0.95312 0.95312 2.0156 1.5117 3.1367l-23.465 8.3438c-1.3438-6.4414-2.1289-12.543-2.6328-16.801h5.6016c5.5664-0.12109 11.137 0.26953 16.633 1.1797zm-72.07-16.859-16.07 21.449-7.0547-18.594-0.003906 0.003906c5.6133-2.0625 11.547-3.125 17.527-3.1367 1.8477 0 3.6406 0.10937 5.6016 0.27734zm-34.719 3.8086 9.9688 26.266-22.848 10.527-10.191-28h-0.003907c6.2383-5.6992 14.398-8.8398 22.848-8.793zm-56.617 33.602 3.8633-0.28125 1.0625-3.7539c3.9219-13.328 12.375-16.406 18.031-16.801l10.305 28-22.176 6.8906-15.621 24.641-22.008-16.801c0.27734-19.43 25.199-21.727 26.316-21.785zm-42.281 48.047c2.8555 5.6016 8.8477 15.793 20.441 35.391l-11.199 10.641c-12.488-5.2656-20.047-8.2891-24.695-9.8555 0.78516-4.5938 1.8477-11.199 2.9102-17.695 2.3008-7.1445 6.5469-13.504 12.262-18.367zm-17.695 47.266c5.0391 1.8477 13.105 5.1523 21.113 8.5117l2.8555 14c-9.2383 1.0625-15.008 1.9023-18.594 2.6328-1.5742-2.9297-3.5742-5.6133-5.9336-7.9531-1.3789-5.625-1.2617-11.512 0.33594-17.082zm7.5039 36.062c4.0898-0.78516 11.199-1.7344 18.703-2.5742l3.5273 17.305-14 7.5586-2.9102-2.9688-2.2969-2.5742c-2.6016-5.1172-3.7266-10.859-3.2461-16.578zm62.441 52.922c-4.5352-2.8555-20.887-12.992-27.105-16.801l-1.0078-12.879h23.969l5.6016 14.391 9.1289 22.734-4.7031-3.3594c-2.3008-1.3984-4.3164-2.8555-5.8828-4.0859zm124.04 13.664 4.8164-8.3984 0.61719 2.1289-0.39062 0.72656-0.003906-0.003906c-1.0664 2.3867-2.8203 4.3945-5.0391 5.7695zm21.055-6.2148v-0.003906c-1.3711-0.011719-2.7383-0.14453-4.0859-0.39062l-2.9688-10.473 12.098-7.168 15.23 7.5586c-4.6836 6.5781-12.203 10.543-20.273 10.699zm47.77-19.375v-0.003906c1.3008-4.0156 1.9609-8.2109 1.9609-12.434 3.3906-1.1797 6.6562-2.6992 9.7422-4.5352l0.55859-0.44922 8.5664 7.3906-9.9648 14.676c-2.4336-0.73047-4.7812-1.7266-7-2.9688-1.2344-0.61719-2.5312-1.1055-3.8633-1.457zm98 33.602 2.2969-4.5938 6.6641 2.2969v-0.003907c-2.6562 1.7734-5.7695 2.7266-8.9609 2.7422zm44.07-9.8555-1.0078-2.3516v-0.007812c1.3164 0.92578 2.7266 1.7148 4.1992 2.3516h-3.1914zm54.434-43.52c4.8164 7.5586-1.457 16.129-8.2305 23.465h-0.003906c-1.6641 1.4727-2.8203 3.4336-3.3008 5.6016-1.6289 2.3008-3.6133 4.3203-5.8828 5.9922l-7.5586 1.0625h-12.266c-4.5273-0.19922-8.8906-1.7422-12.543-4.4219-0.86328-4.0156-3.4141-7.4648-7-9.4648-2.793-1.1914-5.9688-1.0898-8.6797 0.27734-1.3438 0.61719-1.6797 0.78516-7.8945-3.3594-3.6953-2.4648-3.9766-5.1523-4.2578-10.078v-1.6797c0-3.6406-0.95312-13.215-9.8008-15.008h-1.2305c-2.1289-0.39062-2.8555-0.50391-6.0469-5.0977-3.6914-4.5898-5.2227-10.551-4.2031-16.352 0.67969-4.4062-0.77734-8.875-3.918-12.039-0.86328-0.75-1.875-1.3008-2.9688-1.625-10.473-9.5742-5.6016-30.969-5.6016-31.191l0.55859-2.4062-1.3984-2.0156v-0.003906c-4.4336-5.9414-5.7266-13.656-3.4688-20.719 0.83984-2.6328 1.793-4.8711 2.6328-6.8867h-0.003906c2.3008-4.5039 3.457-9.5039 3.3633-14.562-0.35938-3.0039-1.1289-5.9414-2.2969-8.7344-1.0352-2.2031-1.2695-4.6992-0.67188-7.0547 1.332-3.0391 3.8047-5.4336 6.8867-6.6641 4.6289-0.011719 9.0625-1.8672 12.32-5.1523l2.2383-1.9023-0.33594-2.9102v-0.003906c-0.67188-2.6914-0.23047-5.5391 1.2344-7.8984 0.78516-0.72656 2.6328-1.3438 7-0.50391 5.6016 1.1211 9.6875-3.6953 12.32-8.2891l4.3672 0.55859c17.809 2.2383 17.977 10.695 17.977 10.863l-0.39062 5.6016 5.6016 0.50391c11.535 1.1211 13.719 15.902 13.777 16.465l0.72656 5.6016 5.6016-0.55859h0.67188c7.168 0 10.473 15.008 11.199 19.039v1.6797l1.1211 1.2891c6.2734 7.2812 6.6641 23.801 6.2734 29.566v1.5664l0.72656 1.3984c9.5742 18.199 3.3047 30.855 3.0781 31.359l-1.625 3.0781 2.0156 2.8008-0.003906 0.007812c3.1406 4.8789 4.8008 10.562 4.7812 16.367-0.019531 5.8008-1.7188 11.477-4.8906 16.336l-2.0156 3.0234z"/>
  <path d="m579.21 338.35c-0.53906-0.73828-1.1797-1.3984-1.9023-1.9609 2.125-2.6211 2.7227-6.1602 1.5781-9.3359-1.1484-3.1719-3.8711-5.5156-7.1797-6.1758 2.2539-3.0078 2.5391-7.0547 0.73047-10.352-1.8125-3.293-5.3828-5.2227-9.1289-4.9336 1.5039-3.0273 1.3125-6.6172-0.50391-9.4648l-0.55859-0.61719h-0.003907c1.332-0.25391 2.5898-0.78906 3.6992-1.5664 3.6523-2.5312 5.1016-7.2305 3.5078-11.379-1.5977-4.1484-5.8203-6.6641-10.23-6.0938-0.11328-1.7266-0.69531-3.3945-1.6797-4.8164 3.5703-2.4688 5.043-7.0195 3.6055-11.113s-5.4375-6.7188-9.7656-6.4141c1.332-2.9883 1.0547-6.4492-0.73047-9.1875-1.7891-2.7383-4.8438-4.3828-8.1172-4.3672 1.9297-4.6523-0.050782-10.004-4.543-12.281-4.4961-2.2773-9.9844-0.70703-12.594 3.6016-2.4805-1.2031-5.3633-1.2812-7.9023-0.20703-2.543 1.0742-4.5 3.1914-5.3672 5.8086-4.2773-2.0234-9.3906-0.66016-12.094 3.2227-2.7031 3.8789-2.207 9.1484 1.1719 12.457-2.7461 1.7734-4.4062 4.8203-4.4062 8.0938 0 3.2695 1.6602 6.3164 4.4062 8.0898-3.7461 2.2188-5.5391 6.6758-4.3711 10.871 1.1641 4.1953 5 7.0859 9.3555 7.0508 0.019531 1.7188 0.50391 3.4023 1.4023 4.8711-3.3125 1.7188-5.3359 5.1914-5.1914 8.9219 0.14453 3.7266 2.4258 7.0352 5.8633 8.4922-2.2773 2.9062-2.6914 6.8555-1.0703 10.172 1.625 3.3125 4.9961 5.4102 8.6836 5.3984-0.050782 0.57812-0.050782 1.1562 0 1.7344 0 3.918 2.3594 7.4531 5.9805 8.9531 3.6211 1.4961 7.7891 0.66797 10.559-2.1016 2.7695-2.7695 3.6016-6.9375 2.1016-10.559-1.5-3.6211-5.0352-5.9805-8.9531-5.9805 0.054687-0.57812 0.054687-1.1562 0-1.7344 0.046875-3.8125-2.1445-7.2969-5.5977-8.9062 2.4648-3.1055 2.7344-7.418 0.67187-10.809 3.9688-2.0352 6.0195-6.5352 4.9531-10.867-1.0664-4.3359-4.9727-7.3672-9.4336-7.332-0.015625-3.3789-1.8008-6.5039-4.7031-8.2305 2.8047-1.6875 4.5586-4.6836 4.6641-7.957 0.10156-3.2695-1.4648-6.3711-4.1602-8.2266 1.6562-1.1562 2.9062-2.8008 3.582-4.707 2.1523 1.5156 4.8281 2.0859 7.4062 1.5781 2.582-0.50781 4.8438-2.0469 6.2578-4.2656 1.3242 0.66016 2.7812 1.0078 4.2578 1.0078-1.1719 3.0664-0.70312 6.5195 1.2461 9.1602s5.1094 4.1055 8.3867 3.8906c-1.3906 3.0898-1.0508 6.6875 0.89453 9.4609-3.6562 2.5312-5.1055 7.2305-3.5078 11.379 1.5938 4.1484 5.8203 6.668 10.227 6.0938 0.11328 1.7305 0.69531 3.3945 1.6797 4.8164l0.55859 0.61719h0.003906c-5.1367 0.82812-8.6836 5.582-8.0195 10.742 0.66406 5.1562 5.3047 8.8555 10.48 8.3516-1.2852 2.6484-1.2852 5.7422 0.007812 8.3867 1.2891 2.6445 3.7227 4.5508 6.6016 5.168-2.3945 3.3477-2.3945 7.8477 0 11.199 0.53516 0.74219 1.1758 1.4023 1.9062 1.9609-2.2344 2.8633-2.668 6.7383-1.1211 10.023-2.8086-0.21094-5.5625 0.82812-7.5391 2.832-1.9727 2.0078-2.9648 4.7812-2.7109 7.582-1.0781-0.38281-2.2148-0.57422-3.3594-0.55859 0.53516-3.043-0.42188-6.1562-2.5742-8.375-2.1484-2.2148-5.2305-3.2656-8.2891-2.8242 0.074219-4.0625-2.3945-7.7383-6.1797-9.2109-3.7891-1.4688-8.0898-0.42188-10.777 2.6289-2.6836 3.0469-3.1836 7.4492-1.2461 11.02s5.8945 5.5547 9.9141 4.9688c-0.046874 2.6133 0.97266 5.1328 2.8203 6.9805s4.3672 2.8672 6.9805 2.8203c-0.51953 3.7852 1.2344 7.5195 4.4766 9.5391 3.2383 2.0195 7.3633 1.9453 10.531-0.1875 0.50781-0.36328 0.97656-0.77344 1.3984-1.2305 2.8164 4.0195 8.207 5.2812 12.512 2.9258 4.3086-2.3555 6.1562-7.5703 4.2891-12.109 2.7461-0.98438 4.8867-3.168 5.8164-5.9297 0.92578-2.7656 0.53906-5.8008-1.0547-8.2383 3.3672-3.2148 3.957-8.375 1.3984-12.266z"/>
  <use x="70" y="644" xlink:href="#t"/>
  <use x="90.550781" y="644" xlink:href="#b"/>
  <use x="104.359375" y="644" xlink:href="#a"/>
  <use x="123.347656" y="644" xlink:href="#m"/>
  <use x="142.242188" y="644" xlink:href="#d"/>
  <use x="155.628906" y="644" xlink:href="#a"/>
  <use x="174.617188" y="644" xlink:href="#f"/>
  <use x="204.410156" y="644" xlink:href="#l"/>
  <use x="224.453125" y="644" xlink:href="#k"/>
  <use x="252.453125" y="644" xlink:href="#j"/>
  <use x="262.867188" y="644" xlink:href="#e"/>
  <use x="279.46875" y="644" xlink:href="#c"/>
  <use x="298.703125" y="644" xlink:href="#i"/>
  <use x="318.636719" y="644" xlink:href="#s"/>
  <use x="345.050781" y="644" xlink:href="#h"/>
  <use x="365.570312" y="644" xlink:href="#b"/>
  <use x="379.382812" y="644" xlink:href="#c"/>
  <use x="398.617188" y="644" xlink:href="#f"/>
  <use x="418.660156" y="644" xlink:href="#g"/>
  <use x="438.59375" y="644" xlink:href="#e"/>
  <use x="455.191406" y="644" xlink:href="#a"/>
  <use x="474.179687" y="644" xlink:href="#b"/>
  <use x="70" y="672" xlink:href="#r"/>
  <use x="82.183594" y="672" xlink:href="#b"/>
  <use x="95.992188" y="672" xlink:href="#c"/>
  <use x="115.226562" y="672" xlink:href="#q"/>
  <use x="154.152344" y="672" xlink:href="#d"/>
  <use x="167.535156" y="672" xlink:href="#p"/>
  <use x="187.46875" y="672" xlink:href="#a"/>
  <use x="216.207031" y="672" xlink:href="#o"/>
  <use x="239.640625" y="672" xlink:href="#c"/>
  <use x="258.878906" y="672" xlink:href="#g"/>
  <use x="278.8125" y="672" xlink:href="#i"/>
  <use x="308.492188" y="672" xlink:href="#h"/>
  <use x="329.015625" y="672" xlink:href="#b"/>
  <use x="342.820312" y="672" xlink:href="#c"/>
  <use x="362.058594" y="672" xlink:href="#n"/>
  <use x="371.65625" y="672" xlink:href="#a"/>
  <use x="390.648438" y="672" xlink:href="#e"/>
  <use x="407.242188" y="672" xlink:href="#d"/>
 </g>
</svg>
