<?xml version="1.0" encoding="UTF-8"?>
<svg xmlns="http://www.w3.org/2000/svg" xmlns:xlink="http://www.w3.org/1999/xlink" width="30px" height="30px" viewBox="0 0 30 30" version="1.1">
<g id="surface1">
<path style=" stroke:none;fill-rule:nonzero;fill:#e2bc7a;fill-opacity:1;" d="M 26.9375 6.734375 C 26.9375 6.574219 26.875 6.417969 26.757812 6.300781 L 20.636719 0.179688 C 20.519531 0.0625 20.363281 0 20.203125 0 L 3.671875 0 C 3.335938 0 3.0625 0.273438 3.0625 0.613281 L 3.0625 29.386719 C 3.0625 29.726562 3.335938 30 3.671875 30 L 26.328125 30 C 26.664062 30 26.9375 29.726562 26.9375 29.386719 Z M 20.816406 2.089844 L 24.847656 6.121094 L 20.816406 6.121094 Z M 25.714844 28.777344 L 4.285156 28.777344 L 4.285156 1.222656 L 19.59375 1.222656 L 19.59375 6.734375 C 19.59375 7.074219 19.867188 7.347656 20.203125 7.347656 L 25.714844 7.347656 Z M 25.714844 28.777344 "/>
<path style=" stroke:none;fill-rule:nonzero;fill:#e2bc7a;fill-opacity:1;" d="M 23.230469 20.785156 C 22.761719 20.027344 21.945312 19.59375 20.996094 19.59375 C 20.535156 19.59375 20.0625 19.691406 19.59375 19.890625 C 19.121094 19.691406 18.648438 19.59375 18.1875 19.59375 C 17.238281 19.59375 16.421875 20.027344 15.953125 20.785156 C 15.460938 21.582031 15.429688 22.601562 15.855469 23.625 C 15.429688 24.648438 15.460938 25.667969 15.953125 26.464844 C 16.421875 27.222656 17.238281 27.660156 18.191406 27.660156 C 18.652344 27.660156 19.121094 27.558594 19.59375 27.359375 C 20.0625 27.558594 20.53125 27.660156 20.992188 27.660156 C 21.945312 27.660156 22.761719 27.222656 23.230469 26.464844 C 23.722656 25.667969 23.753906 24.648438 23.328125 23.625 C 23.753906 22.601562 23.722656 21.582031 23.230469 20.785156 Z M 22.191406 25.820312 C 21.945312 26.21875 21.519531 26.433594 20.992188 26.433594 C 20.636719 26.433594 20.257812 26.335938 19.867188 26.140625 C 19.78125 26.097656 19.6875 26.074219 19.59375 26.074219 C 19.5 26.074219 19.402344 26.097656 19.316406 26.140625 C 18.925781 26.335938 18.546875 26.433594 18.191406 26.433594 C 17.664062 26.433594 17.238281 26.21875 16.992188 25.820312 C 16.6875 25.324219 16.714844 24.625 17.078125 23.898438 C 17.164062 23.726562 17.164062 23.527344 17.078125 23.351562 C 16.71875 22.628906 16.6875 21.925781 16.992188 21.429688 C 17.238281 21.035156 17.664062 20.816406 18.1875 20.816406 C 18.546875 20.816406 18.925781 20.917969 19.316406 21.113281 C 19.492188 21.199219 19.691406 21.199219 19.867188 21.113281 C 20.257812 20.917969 20.636719 20.816406 20.996094 20.816406 C 21.519531 20.816406 21.945312 21.035156 22.191406 21.429688 C 22.496094 21.925781 22.46875 22.628906 22.105469 23.351562 C 22.019531 23.527344 22.019531 23.726562 22.105469 23.898438 C 22.46875 24.625 22.496094 25.324219 22.191406 25.820312 Z M 22.191406 25.820312 "/>
<path style=" stroke:none;fill-rule:nonzero;fill:#e2bc7a;fill-opacity:1;" d="M 18.980469 22.097656 L 20.203125 22.097656 L 20.203125 23.320312 L 18.980469 23.320312 Z M 18.980469 22.097656 "/>
<path style=" stroke:none;fill-rule:nonzero;fill:#e2bc7a;fill-opacity:1;" d="M 18.367188 23.933594 L 20.816406 23.933594 L 20.816406 25.15625 L 18.367188 25.15625 Z M 18.367188 23.933594 "/>
<path style=" stroke:none;fill-rule:nonzero;fill:#e2bc7a;fill-opacity:1;" d="M 5.816406 24.183594 L 13.164062 24.183594 L 13.164062 25.40625 L 5.816406 25.40625 Z M 5.816406 24.183594 "/>
<path style=" stroke:none;fill-rule:nonzero;fill:#e2bc7a;fill-opacity:1;" d="M 11.9375 26.328125 L 13.164062 26.328125 L 13.164062 27.550781 L 11.9375 27.550781 Z M 11.9375 26.328125 "/>
<path style=" stroke:none;fill-rule:nonzero;fill:#e2bc7a;fill-opacity:1;" d="M 10.101562 26.328125 L 11.328125 26.328125 L 11.328125 27.550781 L 10.101562 27.550781 Z M 10.101562 26.328125 "/>
<path style=" stroke:none;fill-rule:nonzero;fill:#e2bc7a;fill-opacity:1;" d="M 5.816406 26.328125 L 7.039062 26.328125 L 7.039062 27.550781 L 5.816406 27.550781 Z M 5.816406 26.328125 "/>
<path style=" stroke:none;fill-rule:nonzero;fill:#e2bc7a;fill-opacity:1;" d="M 5.816406 2.449219 L 9.488281 2.449219 L 9.488281 3.671875 L 5.816406 3.671875 Z M 5.816406 2.449219 "/>
<path style=" stroke:none;fill-rule:nonzero;fill:#e2bc7a;fill-opacity:1;" d="M 5.816406 4.285156 L 13.164062 4.285156 L 13.164062 5.511719 L 5.816406 5.511719 Z M 5.816406 4.285156 "/>
<path style=" stroke:none;fill-rule:nonzero;fill:#e2bc7a;fill-opacity:1;" d="M 10.101562 9.183594 L 19.898438 9.183594 L 19.898438 10.40625 L 10.101562 10.40625 Z M 10.101562 9.183594 "/>
<path style=" stroke:none;fill-rule:nonzero;fill:#e2bc7a;fill-opacity:1;" d="M 5.816406 11.632812 L 24.183594 11.632812 L 24.183594 12.855469 L 5.816406 12.855469 Z M 5.816406 11.632812 "/>
<path style=" stroke:none;fill-rule:nonzero;fill:#e2bc7a;fill-opacity:1;" d="M 5.816406 14.082031 L 24.183594 14.082031 L 24.183594 15.304688 L 5.816406 15.304688 Z M 5.816406 14.082031 "/>
<path style=" stroke:none;fill-rule:nonzero;fill:#e2bc7a;fill-opacity:1;" d="M 5.816406 16.53125 L 20.511719 16.53125 L 20.511719 17.753906 L 5.816406 17.753906 Z M 5.816406 16.53125 "/>
<path style=" stroke:none;fill-rule:nonzero;fill:#e2bc7a;fill-opacity:1;" d="M 22.960938 16.53125 L 24.183594 16.53125 L 24.183594 17.753906 L 22.960938 17.753906 Z M 22.960938 16.53125 "/>
<path style=" stroke:none;fill-rule:nonzero;fill:#e2bc7a;fill-opacity:1;" d="M 21.121094 16.53125 L 22.347656 16.53125 L 22.347656 17.753906 L 21.121094 17.753906 Z M 21.121094 16.53125 "/>
</g>
</svg>
