<?xml version="1.0" encoding="UTF-8"?>
<svg xmlns="http://www.w3.org/2000/svg" xmlns:xlink="http://www.w3.org/1999/xlink" width="30px" height="30px" viewBox="0 0 30 30" version="1.1">
<g id="surface1">
<path style=" stroke:none;fill-rule:nonzero;fill:#e2bc7a;fill-opacity:1;" d="M 29.558594 10.742188 L 19.257812 0.445312 C 18.667969 -0.148438 17.710938 -0.148438 17.117188 0.445312 L 14.652344 2.910156 C 14.066406 3.496094 14.0625 4.441406 14.636719 5.035156 L 10.554688 6.785156 L 5.960938 8.757812 L 0.0742188 26.304688 C 0.03125 26.433594 0.0078125 26.5625 0 26.691406 C -0.00390625 26.789062 0.00390625 26.886719 0.0195312 26.980469 C 0.0507812 27.171875 0.121094 27.355469 0.226562 27.523438 C 0.242188 27.550781 0.261719 27.574219 0.28125 27.601562 C 0.320312 27.65625 0.367188 27.703125 0.414062 27.753906 C 0.425781 27.765625 0.4375 27.773438 0.449219 27.785156 C 0.457031 27.785156 0.460938 27.789062 0.464844 27.792969 C 0.476562 27.796875 0.484375 27.800781 0.492188 27.804688 C 0.5 27.808594 0.503906 27.808594 0.511719 27.8125 C 0.519531 27.816406 0.53125 27.816406 0.539062 27.820312 C 0.546875 27.820312 0.554688 27.835938 0.558594 27.835938 C 0.570312 27.839844 0.578125 27.855469 0.585938 27.855469 C 0.59375 27.855469 0.605469 27.839844 0.613281 27.835938 C 0.621094 27.835938 0.625 27.828125 0.632812 27.828125 C 0.640625 27.824219 0.648438 27.820312 0.660156 27.816406 C 0.664062 27.8125 0.671875 27.8125 0.675781 27.808594 C 0.6875 27.804688 0.695312 27.796875 0.707031 27.792969 C 0.710938 27.789062 0.722656 27.789062 0.726562 27.785156 C 0.738281 27.777344 0.65625 27.765625 0.769531 27.753906 L 9.476562 19.039062 C 9.488281 19.027344 9.496094 19.015625 9.507812 19 C 9.550781 18.945312 9.570312 18.878906 9.574219 18.8125 C 9.574219 18.777344 9.570312 18.742188 9.5625 18.710938 C 9.554688 18.691406 9.550781 18.675781 9.542969 18.660156 C 9.335938 18.179688 9.238281 17.65625 9.253906 17.140625 C 9.253906 17.136719 9.253906 17.128906 9.253906 17.125 C 9.261719 16.96875 9.277344 16.816406 9.300781 16.664062 C 9.324219 16.542969 9.351562 16.421875 9.382812 16.300781 C 9.539062 15.742188 9.835938 15.214844 10.277344 14.773438 C 10.285156 14.765625 10.292969 14.757812 10.300781 14.75 C 10.335938 14.714844 10.371094 14.683594 10.40625 14.648438 C 10.421875 14.636719 10.4375 14.621094 10.453125 14.609375 C 10.480469 14.582031 10.511719 14.558594 10.542969 14.535156 C 10.558594 14.519531 10.578125 14.507812 10.59375 14.492188 C 10.625 14.46875 10.652344 14.445312 10.679688 14.425781 C 10.699219 14.414062 10.71875 14.398438 10.734375 14.386719 C 10.765625 14.367188 10.792969 14.34375 10.824219 14.324219 C 10.84375 14.3125 10.863281 14.300781 10.882812 14.289062 C 10.910156 14.269531 10.941406 14.25 10.972656 14.234375 C 10.988281 14.222656 11.007812 14.214844 11.027344 14.203125 C 11.058594 14.183594 11.089844 14.167969 11.121094 14.148438 C 11.140625 14.140625 11.160156 14.132812 11.179688 14.121094 C 11.210938 14.105469 11.242188 14.089844 11.277344 14.074219 C 11.296875 14.066406 11.316406 14.054688 11.335938 14.046875 C 11.367188 14.035156 11.398438 14.019531 11.433594 14.007812 C 11.453125 13.996094 11.476562 13.992188 11.496094 13.980469 C 11.527344 13.96875 11.558594 13.957031 11.589844 13.945312 C 11.613281 13.9375 11.636719 13.933594 11.65625 13.925781 C 11.6875 13.914062 11.722656 13.902344 11.753906 13.894531 C 11.777344 13.886719 11.800781 13.882812 11.824219 13.875 C 11.855469 13.867188 11.882812 13.859375 11.914062 13.851562 C 11.941406 13.84375 11.964844 13.839844 11.988281 13.835938 C 12.019531 13.828125 12.050781 13.820312 12.082031 13.8125 C 12.105469 13.808594 12.128906 13.804688 12.15625 13.800781 C 12.183594 13.796875 12.214844 13.789062 12.246094 13.785156 C 12.273438 13.78125 12.296875 13.78125 12.324219 13.777344 C 12.351562 13.773438 12.382812 13.769531 12.414062 13.765625 C 12.4375 13.761719 12.464844 13.761719 12.492188 13.761719 C 12.519531 13.757812 12.550781 13.753906 12.582031 13.753906 C 12.605469 13.753906 12.632812 13.753906 12.660156 13.75 C 12.691406 13.75 12.71875 13.75 12.75 13.75 C 12.777344 13.75 12.804688 13.75 12.832031 13.75 C 12.859375 13.75 12.886719 13.75 12.914062 13.753906 C 12.945312 13.753906 12.972656 13.757812 13 13.757812 C 13.027344 13.761719 13.054688 13.761719 13.082031 13.765625 C 13.109375 13.765625 13.140625 13.769531 13.167969 13.773438 C 13.195312 13.777344 13.222656 13.78125 13.25 13.785156 C 13.277344 13.789062 13.304688 13.792969 13.335938 13.796875 C 13.363281 13.800781 13.386719 13.804688 13.414062 13.8125 C 13.445312 13.816406 13.472656 13.824219 13.503906 13.832031 C 13.527344 13.835938 13.554688 13.839844 13.578125 13.847656 C 13.609375 13.851562 13.636719 13.863281 13.667969 13.871094 C 13.691406 13.875 13.714844 13.882812 13.738281 13.890625 C 13.769531 13.898438 13.800781 13.90625 13.832031 13.917969 C 13.855469 13.925781 13.878906 13.933594 13.902344 13.941406 C 13.933594 13.949219 13.964844 13.960938 13.996094 13.972656 C 14.015625 13.980469 14.039062 13.988281 14.058594 14 C 14.089844 14.011719 14.121094 14.023438 14.15625 14.039062 C 14.175781 14.046875 14.195312 14.054688 14.214844 14.066406 C 14.246094 14.078125 14.277344 14.09375 14.308594 14.109375 C 14.328125 14.117188 14.351562 14.128906 14.371094 14.136719 C 14.402344 14.152344 14.429688 14.171875 14.460938 14.1875 C 14.480469 14.199219 14.5 14.210938 14.519531 14.21875 C 14.550781 14.238281 14.582031 14.257812 14.613281 14.277344 C 14.628906 14.289062 14.648438 14.296875 14.667969 14.308594 C 14.699219 14.328125 14.726562 14.351562 14.757812 14.371094 C 14.773438 14.382812 14.792969 14.394531 14.8125 14.40625 C 14.839844 14.425781 14.867188 14.449219 14.894531 14.46875 C 14.914062 14.484375 14.933594 14.5 14.953125 14.511719 C 14.976562 14.535156 15.003906 14.554688 15.027344 14.578125 C 15.046875 14.59375 15.066406 14.609375 15.085938 14.625 C 15.121094 14.65625 15.152344 14.683594 15.183594 14.714844 C 15.195312 14.726562 15.207031 14.734375 15.21875 14.746094 C 15.425781 14.960938 15.601562 15.199219 15.746094 15.445312 C 15.773438 15.496094 15.800781 15.546875 15.828125 15.597656 C 16.011719 15.953125 16.128906 16.335938 16.183594 16.722656 C 16.207031 16.890625 16.21875 17.058594 16.214844 17.226562 C 16.214844 17.335938 16.210938 17.449219 16.199219 17.558594 C 16.195312 17.613281 16.1875 17.671875 16.179688 17.726562 C 16.164062 17.828125 16.144531 17.925781 16.121094 18.027344 C 16.085938 18.164062 16.046875 18.304688 15.996094 18.4375 C 15.964844 18.523438 15.929688 18.609375 15.890625 18.695312 C 15.859375 18.761719 15.820312 18.832031 15.785156 18.902344 C 15.628906 19.183594 15.433594 19.449219 15.191406 19.691406 C 15.132812 19.75 15.070312 19.804688 15.007812 19.859375 C 14.996094 19.871094 14.980469 19.886719 14.964844 19.898438 C 14.902344 19.949219 14.839844 20 14.777344 20.046875 C 14.765625 20.054688 14.757812 20.058594 14.75 20.066406 C 14.6875 20.109375 14.628906 20.148438 14.566406 20.183594 C 14.554688 20.195312 14.539062 20.203125 14.523438 20.210938 C 14.457031 20.253906 14.390625 20.292969 14.320312 20.328125 C 14.304688 20.332031 14.292969 20.339844 14.277344 20.347656 C 14.214844 20.378906 14.152344 20.40625 14.085938 20.433594 C 14.074219 20.441406 14.0625 20.445312 14.050781 20.449219 C 13.980469 20.480469 13.90625 20.507812 13.832031 20.53125 C 13.816406 20.535156 13.800781 20.542969 13.785156 20.546875 C 13.710938 20.570312 13.640625 20.589844 13.570312 20.609375 C 13.566406 20.609375 13.558594 20.609375 13.554688 20.613281 C 13.480469 20.632812 13.402344 20.644531 13.328125 20.660156 C 13.308594 20.664062 13.289062 20.664062 13.273438 20.667969 C 13.195312 20.679688 13.121094 20.691406 13.042969 20.699219 C 13.035156 20.699219 13.027344 20.699219 13.023438 20.699219 C 12.949219 20.707031 12.878906 20.710938 12.804688 20.710938 C 12.789062 20.710938 12.769531 20.710938 12.753906 20.710938 C 12.675781 20.714844 12.597656 20.710938 12.515625 20.707031 C 12.507812 20.707031 12.5 20.707031 12.488281 20.707031 C 12.421875 20.703125 12.351562 20.695312 12.28125 20.6875 C 12.257812 20.683594 12.238281 20.679688 12.214844 20.675781 C 12.152344 20.667969 12.085938 20.65625 12.023438 20.644531 C 12.007812 20.640625 11.992188 20.640625 11.976562 20.636719 C 11.902344 20.621094 11.824219 20.601562 11.75 20.578125 C 11.730469 20.574219 11.714844 20.570312 11.695312 20.5625 C 11.636719 20.546875 11.578125 20.527344 11.515625 20.503906 C 11.496094 20.496094 11.476562 20.488281 11.453125 20.480469 C 11.378906 20.453125 11.304688 20.421875 11.234375 20.390625 C 11.210938 20.378906 11.191406 20.375 11.167969 20.367188 C 11.164062 20.367188 11.15625 20.367188 11.152344 20.363281 C 11.132812 20.363281 11.117188 20.359375 11.097656 20.359375 C 11.09375 20.359375 11.089844 20.359375 11.089844 20.359375 C 11.085938 20.359375 11.085938 20.359375 11.085938 20.359375 C 11.066406 20.359375 11.042969 20.359375 11.023438 20.363281 C 11.019531 20.363281 11.015625 20.367188 11.011719 20.367188 C 10.996094 20.371094 10.980469 20.375 10.964844 20.382812 C 10.960938 20.382812 10.953125 20.386719 10.949219 20.390625 C 10.933594 20.394531 10.921875 20.402344 10.910156 20.410156 C 10.902344 20.414062 10.898438 20.414062 10.894531 20.417969 C 10.875 20.429688 10.859375 20.445312 10.84375 20.457031 L 2.152344 29.148438 C 2.117188 29.183594 2.097656 29.230469 2.085938 29.273438 C 2.085938 29.289062 2.082031 29.304688 2.082031 29.320312 C 2.082031 29.367188 2.097656 29.414062 2.121094 29.457031 C 2.132812 29.46875 2.140625 29.480469 2.152344 29.492188 L 2.246094 29.585938 C 2.277344 29.617188 2.308594 29.644531 2.339844 29.671875 C 2.347656 29.675781 2.355469 29.683594 2.367188 29.691406 C 2.394531 29.714844 2.421875 29.734375 2.449219 29.753906 C 2.457031 29.757812 2.460938 29.761719 2.46875 29.765625 C 2.503906 29.789062 2.539062 29.808594 2.574219 29.828125 C 2.582031 29.835938 2.59375 29.839844 2.601562 29.84375 C 2.628906 29.859375 2.660156 29.871094 2.691406 29.886719 C 2.699219 29.890625 2.710938 29.894531 2.71875 29.898438 C 2.757812 29.914062 2.796875 29.925781 2.835938 29.9375 C 2.839844 29.941406 2.84375 29.941406 2.851562 29.941406 C 2.886719 29.953125 2.917969 29.960938 2.953125 29.96875 C 2.964844 29.96875 2.976562 29.972656 2.988281 29.976562 C 3.023438 29.980469 3.058594 29.988281 3.097656 29.992188 C 3.101562 29.992188 3.105469 29.992188 3.109375 29.992188 C 3.152344 29.996094 3.191406 30 3.230469 30 C 3.238281 30 3.242188 30 3.246094 30 C 3.253906 30 3.261719 30 3.269531 29.996094 C 3.292969 29.996094 3.316406 29.996094 3.335938 29.996094 C 3.351562 29.996094 3.367188 29.992188 3.378906 29.992188 C 3.402344 29.988281 3.421875 29.988281 3.445312 29.984375 C 3.460938 29.980469 3.472656 29.980469 3.488281 29.976562 C 3.511719 29.972656 3.535156 29.96875 3.558594 29.964844 C 3.570312 29.960938 3.582031 29.957031 3.59375 29.957031 C 3.628906 29.945312 3.660156 29.9375 3.695312 29.925781 C 3.695312 29.925781 3.695312 29.925781 3.699219 29.925781 L 16.785156 25.5 L 21.210938 24.007812 L 24.929688 15.328125 L 24.953125 15.347656 C 25.542969 15.9375 26.5 15.9375 27.089844 15.347656 L 29.558594 12.882812 C 30.148438 12.292969 30.148438 11.332031 29.558594 10.742188 Z M 29.558594 10.742188 "/>
</g>
</svg>
